<svg width="28" height="28" fill="none" xmlns="http://www.w3.org/2000/svg"><path d="M14 2.333C7.556 2.333 2.333 7.558 2.333 14c0 6.444 5.223 11.667 11.667 11.667 6.443 0 11.666-5.224 11.666-11.667S20.443 2.334 14 2.334z" fill="#90ECF4"/><path fill-rule="evenodd" clip-rule="evenodd" d="M12.99 11.084a1.167 1.167 0 11-2.02-1.168 3.5 3.5 0 016.53 1.75c0 1.281-.785 2.327-1.75 2.917-.774.474-.291 1.75-1.752 1.75a1.167 1.167 0 01-1.161-1.288c.032-.617.308-1.119.607-1.484.316-.385.732-.7 1.05-.89 1.77-1.051-.388-3.203-1.505-1.587zm1.008 6.416a1.167 1.167 0 100 2.333 1.167 1.167 0 000-2.333z" fill="#444BD3"/></svg>